<svg width="140" height="140" viewBox="0 0 140 140" fill="none" xmlns="http://www.w3.org/2000/svg">
<path d="M118.125 122.5H82.6875C77.4375 122.5 72.625 120.313 68.6875 116.813L13.125 61.25L43.75 26.25C43.75 43.3125 61.6875 61.25 78.75 61.25H83.125C82.6875 80.9375 90.125 95.375 109.375 101.5C110.688 101.938 111.562 102.375 112.875 102.375C118.125 103.687 121.625 109.375 120.312 114.625L118.125 122.5Z" stroke="white" stroke-width="2" stroke-miterlimit="10" stroke-linecap="round" stroke-linejoin="round"/>
<path d="M4.375 70L64.3125 129.938C67.8125 133.438 73.0625 135.625 78.3125 135.625H118.125" stroke="white" stroke-width="2" stroke-miterlimit="10" stroke-linecap="round" stroke-linejoin="round"/>
<path d="M45.9375 74.375C49.5619 74.375 52.5 71.4369 52.5 67.8125C52.5 64.1881 49.5619 61.25 45.9375 61.25C42.3131 61.25 39.375 64.1881 39.375 67.8125C39.375 71.4369 42.3131 74.375 45.9375 74.375Z" stroke="white" stroke-width="2" stroke-miterlimit="10" stroke-linecap="round" stroke-linejoin="round"/>
<path d="M65.625 83.125H85.3125" stroke="white" stroke-width="2" stroke-miterlimit="10" stroke-linecap="round" stroke-linejoin="round"/>
<path d="M74.375 96.25H98.4375" stroke="white" stroke-width="2" stroke-miterlimit="10" stroke-linecap="round" stroke-linejoin="round"/>
<path d="M122.5 4.375L90.5625 36.3125C83.125 43.75 80.5 54.25 83.125 64.3125" stroke="white" stroke-width="2" stroke-miterlimit="10" stroke-linecap="round" stroke-linejoin="round"/>
<path d="M43.75 30.625C52.0625 28 59.5 21.875 63.875 14.4375L70 4.375" stroke="white" stroke-width="2" stroke-miterlimit="10" stroke-linecap="round" stroke-linejoin="round"/>
</svg>
